# xmcd
#
# Track frame offsets: 
#        150
#        14761
#        29582
#        43327
#        58788
#        74239
#        86702
#        101581
#        119864
#        139179
#
# Disc length: 2083 seconds
#
# Revision: 2
# Processed by: cddbd v1.5.2PL0 Copyright (c) Steve Scherf et al.
# Submitted via: ExactAudioCopy v1.3
#
DISCID=a508210a
DTITLE=Steve Wariner - Life's Highway
DYEAR=1985
DGENRE=Country
TTITLE0=Life's Highway
TTITLE1=Back Up Grinnin' Again
TTITLE2=I Let A Keeper Get Away
TTITLE3=She's Crazy For Leaving
TTITLE4=In Love And Out Of Danger
TTITLE5=She's Leaving Me All Over Town
TTITLE6=Natural History
TTITLE7=You Can Dream Of Me
TTITLE8=Starting Over Again
TTITLE9=The Heartland
EXTD=
EXTT0=
EXTT1=
EXTT2=
EXTT3=
EXTT4=
EXTT5=
EXTT6=
EXTT7=
EXTT8=
EXTT9=
PLAYORDER=
